<!-- Generated by IcoMoon.io -->
<svg version="1.1" xmlns="http://www.w3.org/2000/svg" width="448" height="448" viewBox="0 0 448 448">
<title></title>
<g id="icomoon-ignore">
</g>
<path d="M320 176c0-8.75-7.25-16-16-16-88.5 0-145.5 37-203.25 100.75-3 3.25-4.75 6.75-4.75 11.25 0 8.75 7.25 16 16 16 4.5 0 8-1.75 11.25-4.75 12.25-11 23.25-23 35.25-34.25 45.25-40.75 84-57 145.5-57 8.75 0 16-7.25 16-16zM448 126.5c0 16-1.75 32.25-5 48.25-16 77.75-66 128.25-135.5 162.75-33.75 17-71.5 27-109.5 27-24 0-48.75-4-71.5-11.75-12-4-36-19.75-46-19.75-12.5 0-27.5 51-49.25 51-15.75 0-20.5-7.75-27.25-19.25-2.25-4.25-4-5.75-4-11 0-26 49.5-46.25 49.5-60.75 0-2.25-6.5-15.5-7.5-20.5-1.5-8.5-2.25-17.25-2.25-26 0-79.5 63.25-136.25 134.25-159.75 51.25-17 160.25 2.75 195-30.25 13.75-12.75 20.5-24.5 41.5-24.5 28.25 0 37.5 73.25 37.5 94.5z"></path>
</svg>
